<?xml version="1.0" standalone="yes"?>

<svg version="1.1" viewBox="0.0 0.0 185.59317585301838 458.06299212598424" fill="none" stroke="none" stroke-linecap="square" stroke-miterlimit="10" xmlns="http://www.w3.org/2000/svg" xmlns:xlink="http://www.w3.org/1999/xlink"><clipPath id="p.0"><path d="m0 0l185.59317 0l0 458.063l-185.59317 0l0 -458.063z" clip-rule="nonzero"></path></clipPath><g clip-path="url(#p.0)"><path fill="#000000" fill-opacity="0.0" d="m0 0l185.59317 0l0 458.063l-185.59317 0z" fill-rule="evenodd"></path><path fill="#b6d7a8" d="m0 339.91864l0 0c0 -8.923523 7.2057476 -16.15747 16.094488 -16.15747l0 0c4.268524 0 8.362219 1.702301 11.380522 4.7323914c3.018303 3.0301208 4.7139664 7.1398315 4.7139664 11.425079l0 0c0 8.923523 -7.2057476 16.15747 -16.094488 16.15747l0 0c-8.888741 0 -16.094488 -7.2339478 -16.094488 -16.15747z" fill-rule="evenodd"></path><path stroke="#38761d" stroke-width="1.0" stroke-linejoin="round" stroke-linecap="butt" d="m0 339.91864l0 0c0 -8.923523 7.2057476 -16.15747 16.094488 -16.15747l0 0c4.268524 0 8.362219 1.702301 11.380522 4.7323914c3.018303 3.0301208 4.7139664 7.1398315 4.7139664 11.425079l0 0c0 8.923523 -7.2057476 16.15747 -16.094488 16.15747l0 0c-8.888741 0 -16.094488 -7.2339478 -16.094488 -16.15747z" fill-rule="evenodd"></path><path fill="#b6d7a8" d="m0 420.8609l0 0c0 -8.923553 7.2057476 -16.157501 16.094488 -16.157501l0 0c4.268524 0 8.362219 1.702301 11.380522 4.732422c3.018303 3.0301208 4.7139664 7.1398315 4.7139664 11.425079l0 0c0 8.923523 -7.2057476 16.15747 -16.094488 16.15747l0 0c-8.888741 0 -16.094488 -7.2339478 -16.094488 -16.15747z" fill-rule="evenodd"></path><path stroke="#38761d" stroke-width="1.0" stroke-linejoin="round" stroke-linecap="butt" d="m0 420.8609l0 0c0 -8.923553 7.2057476 -16.157501 16.094488 -16.157501l0 0c4.268524 0 8.362219 1.702301 11.380522 4.732422c3.018303 3.0301208 4.7139664 7.1398315 4.7139664 11.425079l0 0c0 8.923523 -7.2057476 16.15747 -16.094488 16.15747l0 0c-8.888741 0 -16.094488 -7.2339478 -16.094488 -16.15747z" fill-rule="evenodd"></path><path fill="#b6d7a8" d="m0 258.97638l0 0c0 -8.923538 7.2057476 -16.157486 16.094488 -16.157486l0 0c4.268524 0 8.362219 1.702301 11.380522 4.732422c3.018303 3.0301208 4.7139664 7.1398315 4.7139664 11.425064l0 0c0 8.923523 -7.2057476 16.15747 -16.094488 16.15747l0 0c-8.888741 0 -16.094488 -7.2339478 -16.094488 -16.15747z" fill-rule="evenodd"></path><path stroke="#38761d" stroke-width="1.0" stroke-linejoin="round" stroke-linecap="butt" d="m0 258.97638l0 0c0 -8.923538 7.2057476 -16.157486 16.094488 -16.157486l0 0c4.268524 0 8.362219 1.702301 11.380522 4.732422c3.018303 3.0301208 4.7139664 7.1398315 4.7139664 11.425064l0 0c0 8.923523 -7.2057476 16.15747 -16.094488 16.15747l0 0c-8.888741 0 -16.094488 -7.2339478 -16.094488 -16.15747z" fill-rule="evenodd"></path><path fill="#000000" fill-opacity="0.0" d="m16.094488 404.7034l0 -48.629913" fill-rule="evenodd"></path><path stroke="#38761d" stroke-width="1.0" stroke-linejoin="round" stroke-linecap="butt" d="m16.094488 404.7034l0 -42.629913" fill-rule="evenodd"></path><path fill="#38761d" stroke="#38761d" stroke-width="1.0" stroke-linecap="butt" d="m17.746222 362.0735l-1.6517334 -4.538086l-1.6517324 4.538086z" fill-rule="evenodd"></path><path fill="#000000" fill-opacity="0.0" d="m16.094488 323.7638l0 -48.629944" fill-rule="evenodd"></path><path stroke="#38761d" stroke-width="1.0" stroke-linejoin="round" stroke-linecap="butt" d="m16.094488 323.7638l0 -42.629944" fill-rule="evenodd"></path><path fill="#38761d" stroke="#38761d" stroke-width="1.0" stroke-linecap="butt" d="m17.746222 281.13385l-1.6517334 -4.538086l-1.6517324 4.538086z" fill-rule="evenodd"></path><path fill="#b6d7a8" d="m0 178.03674l0 0c0 -8.923523 7.2057476 -16.15747 16.094488 -16.15747l0 0c4.268524 0 8.362219 1.702301 11.380522 4.7324066c3.018303 3.0301208 4.7139664 7.1398315 4.7139664 11.425064l0 0c0 8.923538 -7.2057476 16.157486 -16.094488 16.157486l0 0c-8.888741 0 -16.094488 -7.2339478 -16.094488 -16.157486z" fill-rule="evenodd"></path><path stroke="#38761d" stroke-width="1.0" stroke-linejoin="round" stroke-linecap="butt" d="m0 178.03674l0 0c0 -8.923523 7.2057476 -16.15747 16.094488 -16.15747l0 0c4.268524 0 8.362219 1.702301 11.380522 4.7324066c3.018303 3.0301208 4.7139664 7.1398315 4.7139664 11.425064l0 0c0 8.923538 -7.2057476 16.157486 -16.094488 16.157486l0 0c-8.888741 0 -16.094488 -7.2339478 -16.094488 -16.157486z" fill-rule="evenodd"></path><path fill="#000000" fill-opacity="0.0" d="m16.094488 242.82414l0 -48.629913" fill-rule="evenodd"></path><path stroke="#38761d" stroke-width="1.0" stroke-linejoin="round" stroke-linecap="butt" d="m16.094488 242.82414l0 -42.629913" fill-rule="evenodd"></path><path fill="#38761d" stroke="#38761d" stroke-width="1.0" stroke-linecap="butt" d="m17.746222 200.19423l-1.6517334 -4.538101l-1.6517324 4.538101z" fill-rule="evenodd"></path><path fill="#b6d7a8" d="m130.24934 339.91733l0 0c0 -8.923523 7.2057495 -16.15747 16.094482 -16.15747l0 0c4.268524 0 8.362228 1.702301 11.380524 4.7323914c3.0183105 3.0301208 4.713974 7.1398315 4.713974 11.425079l0 0c0 8.923523 -7.2057495 16.15747 -16.094498 16.15747l0 0c-8.888733 0 -16.094482 -7.2339478 -16.094482 -16.15747z" fill-rule="evenodd"></path><path stroke="#38761d" stroke-width="1.0" stroke-linejoin="round" stroke-linecap="butt" d="m130.24934 339.91733l0 0c0 -8.923523 7.2057495 -16.15747 16.094482 -16.15747l0 0c4.268524 0 8.362228 1.702301 11.380524 4.7323914c3.0183105 3.0301208 4.713974 7.1398315 4.713974 11.425079l0 0c0 8.923523 -7.2057495 16.15747 -16.094498 16.15747l0 0c-8.888733 0 -16.094482 -7.2339478 -16.094482 -16.15747z" fill-rule="evenodd"></path><path fill="#b6d7a8" d="m130.24934 420.8596l0 0c0 -8.923553 7.2057495 -16.157501 16.094482 -16.157501l0 0c4.268524 0 8.362228 1.702301 11.380524 4.732422c3.0183105 3.0301208 4.713974 7.1398315 4.713974 11.425079l0 0c0 8.923523 -7.2057495 16.15747 -16.094498 16.15747l0 0c-8.888733 0 -16.094482 -7.2339478 -16.094482 -16.15747z" fill-rule="evenodd"></path><path stroke="#38761d" stroke-width="1.0" stroke-linejoin="round" stroke-linecap="butt" d="m130.24934 420.8596l0 0c0 -8.923553 7.2057495 -16.157501 16.094482 -16.157501l0 0c4.268524 0 8.362228 1.702301 11.380524 4.732422c3.0183105 3.0301208 4.713974 7.1398315 4.713974 11.425079l0 0c0 8.923523 -7.2057495 16.15747 -16.094498 16.15747l0 0c-8.888733 0 -16.094482 -7.2339478 -16.094482 -16.15747z" fill-rule="evenodd"></path><path fill="#000000" fill-opacity="0.0" d="m146.34383 404.7021l0 -48.629913" fill-rule="evenodd"></path><path stroke="#38761d" stroke-width="1.0" stroke-linejoin="round" stroke-linecap="butt" d="m146.34383 404.7021l0 -42.629913" fill-rule="evenodd"></path><path fill="#38761d" stroke="#38761d" stroke-width="1.0" stroke-linecap="butt" d="m147.99556 362.07217l-1.6517334 -4.538086l-1.6517334 4.538086z" fill-rule="evenodd"></path><path fill="#b6d7a8" d="m0 97.097115l0 0c0 -8.923531 7.2057476 -16.157478 16.094488 -16.157478l0 0c4.268524 0 8.362219 1.702301 11.380522 4.7324142c3.018303 3.0301132 4.7139664 7.1398315 4.7139664 11.425064l0 0c0 8.923531 -7.2057476 16.157478 -16.094488 16.157478l0 0c-8.888741 0 -16.094488 -7.2339478 -16.094488 -16.157478z" fill-rule="evenodd"></path><path stroke="#38761d" stroke-width="1.0" stroke-linejoin="round" stroke-linecap="butt" d="m0 97.097115l0 0c0 -8.923531 7.2057476 -16.157478 16.094488 -16.157478l0 0c4.268524 0 8.362219 1.702301 11.380522 4.7324142c3.018303 3.0301132 4.7139664 7.1398315 4.7139664 11.425064l0 0c0 8.923531 -7.2057476 16.157478 -16.094488 16.157478l0 0c-8.888741 0 -16.094488 -7.2339478 -16.094488 -16.157478z" fill-rule="evenodd"></path><path fill="#000000" fill-opacity="0.0" d="m16.094488 161.88452l0 -48.62993" fill-rule="evenodd"></path><path stroke="#38761d" stroke-width="1.0" stroke-linejoin="round" stroke-linecap="butt" d="m16.094488 161.88452l0 -42.62993" fill-rule="evenodd"></path><path fill="#38761d" stroke="#38761d" stroke-width="1.0" stroke-linecap="butt" d="m17.746222 119.25459l-1.6517334 -4.538101l-1.6517324 4.538101z" fill-rule="evenodd"></path><path fill="#b6d7a8" d="m0 16.15748l0 0c0 -8.923531 7.2057476 -16.15748 16.094488 -16.15748l0 0c4.268524 0 8.362219 1.702301 11.380522 4.7324166c3.018303 3.0301151 4.7139664 7.139834 4.7139664 11.425064l0 0c0 8.923531 -7.2057476 16.15748 -16.094488 16.15748l0 0c-8.888741 0 -16.094488 -7.2339497 -16.094488 -16.15748z" fill-rule="evenodd"></path><path stroke="#38761d" stroke-width="1.0" stroke-linejoin="round" stroke-linecap="butt" d="m0 16.15748l0 0c0 -8.923531 7.2057476 -16.15748 16.094488 -16.15748l0 0c4.268524 0 8.362219 1.702301 11.380522 4.7324166c3.018303 3.0301151 4.7139664 7.139834 4.7139664 11.425064l0 0c0 8.923531 -7.2057476 16.15748 -16.094488 16.15748l0 0c-8.888741 0 -16.094488 -7.2339497 -16.094488 -16.15748z" fill-rule="evenodd"></path><path fill="#000000" fill-opacity="0.0" d="m16.094488 80.944885l0 -48.629925" fill-rule="evenodd"></path><path stroke="#38761d" stroke-width="1.0" stroke-linejoin="round" stroke-linecap="butt" d="m16.094488 80.944885l0 -42.629925" fill-rule="evenodd"></path><path fill="#38761d" stroke="#38761d" stroke-width="1.0" stroke-linecap="butt" d="m17.746222 38.31496l-1.6517334 -4.5380974l-1.6517324 4.5380974z" fill-rule="evenodd"></path><path fill="#b6d7a8" d="m130.24934 258.97638l0 0c0 -8.923538 7.2057495 -16.157486 16.094482 -16.157486l0 0c4.268524 0 8.362228 1.702301 11.380524 4.732422c3.0183105 3.0301208 4.713974 7.1398315 4.713974 11.425064l0 0c0 8.923523 -7.2057495 16.15747 -16.094498 16.15747l0 0c-8.888733 0 -16.094482 -7.2339478 -16.094482 -16.15747z" fill-rule="evenodd"></path><path stroke="#38761d" stroke-width="1.0" stroke-linejoin="round" stroke-linecap="butt" d="m130.24934 258.97638l0 0c0 -8.923538 7.2057495 -16.157486 16.094482 -16.157486l0 0c4.268524 0 8.362228 1.702301 11.380524 4.732422c3.0183105 3.0301208 4.713974 7.1398315 4.713974 11.425064l0 0c0 8.923523 -7.2057495 16.15747 -16.094498 16.15747l0 0c-8.888733 0 -16.094482 -7.2339478 -16.094482 -16.15747z" fill-rule="evenodd"></path><path fill="#000000" fill-opacity="0.0" d="m146.34383 323.7638l0 -48.629944" fill-rule="evenodd"></path><path stroke="#38761d" stroke-width="1.0" stroke-linejoin="round" stroke-linecap="butt" d="m146.34383 323.7638l0 -42.629944" fill-rule="evenodd"></path><path fill="#38761d" stroke="#38761d" stroke-width="1.0" stroke-linecap="butt" d="m147.99556 281.13385l-1.6517334 -4.538086l-1.6517334 4.538086z" fill-rule="evenodd"></path><path fill="#000000" fill-opacity="0.0" d="m32.188976 339.91864l102.77165 -69.51181" fill-rule="evenodd"></path><path stroke="#000000" stroke-width="1.0" stroke-linejoin="round" stroke-linecap="butt" d="m32.188976 339.91864l97.80173 -66.1503" fill-rule="evenodd"></path><path fill="#000000" stroke="#000000" stroke-width="1.0" stroke-linecap="butt" d="m130.91609 275.1365l2.8336182 -3.9106445l-4.6844025 1.1743164z" fill-rule="evenodd"></path><path fill="#000000" fill-opacity="0.0" d="m27.47501 270.40143l107.49606 58.078766" fill-rule="evenodd"></path><path stroke="#000000" stroke-width="1.0" stroke-linejoin="round" stroke-linecap="butt" d="m27.47501 270.40146l102.21727 55.226654" fill-rule="evenodd"></path><path fill="#000000" stroke="#000000" stroke-width="1.0" stroke-linecap="butt" d="m128.90714 327.08133l4.7777557 0.703949l-3.2074738 -3.6103516z" fill-rule="evenodd"></path><path fill="#b6d7a8" d="m123.068245 122.345146l0 0c0 -13.428787 10.42083 -24.314964 23.275581 -24.314964l0 0c6.1730804 0 12.0933075 2.5617523 16.458328 7.121689c4.3650208 4.5599365 6.8172607 10.744545 6.8172607 17.193275l0 0c0 13.42878 -10.420822 24.314964 -23.275589 24.314964l0 0c-12.854752 0 -23.275581 -10.886185 -23.275581 -24.314964z" fill-rule="evenodd"></path><path stroke="#38761d" stroke-width="1.0" stroke-linejoin="round" stroke-linecap="butt" d="m123.068245 122.345146l0 0c0 -13.428787 10.42083 -24.314964 23.275581 -24.314964l0 0c6.1730804 0 12.0933075 2.5617523 16.458328 7.121689c4.3650208 4.5599365 6.8172607 10.744545 6.8172607 17.193275l0 0c0 13.42878 -10.420822 24.314964 -23.275589 24.314964l0 0c-12.854752 0 -23.275581 -10.886185 -23.275581 -24.314964z" fill-rule="evenodd"></path><path fill="#000000" fill-opacity="0.0" d="m146.34383 242.8189l0 -96.15747" fill-rule="evenodd"></path><path stroke="#38761d" stroke-width="1.0" stroke-linejoin="round" stroke-linecap="butt" d="m146.34383 242.8189l0 -90.15747" fill-rule="evenodd"></path><path fill="#38761d" stroke="#38761d" stroke-width="1.0" stroke-linecap="butt" d="m147.99556 152.66142l-1.6517334 -4.538101l-1.6517334 4.538101z" fill-rule="evenodd"></path><path fill="#000000" fill-opacity="0.0" d="m32.188976 97.097115l90.866135 25.259842" fill-rule="evenodd"></path><path stroke="#000000" stroke-width="1.0" stroke-linejoin="round" stroke-linecap="butt" d="m32.188976 97.097115l85.08536 23.652847" fill-rule="evenodd"></path><path fill="#000000" stroke="#000000" stroke-width="1.0" stroke-linecap="butt" d="m116.83194 122.34134l4.8146896 -0.3759308l-3.9299164 -2.806839z" fill-rule="evenodd"></path><path fill="#000000" fill-opacity="0.0" d="m27.47501 27.582544l102.4252 77.57481" fill-rule="evenodd"></path><path stroke="#000000" stroke-width="1.0" stroke-linejoin="round" stroke-linecap="butt" d="m27.47501 27.582544l97.6422 73.952255" fill-rule="evenodd"></path><path fill="#000000" stroke="#000000" stroke-width="1.0" stroke-linecap="butt" d="m124.11996 102.8515l4.614876 1.4232101l-2.6203766 -4.0566254z" fill-rule="evenodd"></path></g></svg>

