<?xml version="1.0" standalone="yes"?>

<svg version="1.1" viewBox="0.0 0.0 163.3727034120735 326.748031496063" fill="none" stroke="none" stroke-linecap="square" stroke-miterlimit="10" xmlns="http://www.w3.org/2000/svg" xmlns:xlink="http://www.w3.org/1999/xlink"><clipPath id="p.0"><path d="m0 0l163.3727 0l0 326.74802l-163.3727 0l0 -326.74802z" clip-rule="nonzero"></path></clipPath><g clip-path="url(#p.0)"><path fill="#000000" fill-opacity="0.0" d="m0 0l163.3727 0l0 326.74802l-163.3727 0z" fill-rule="evenodd"></path><path fill="#b6d7a8" d="m27.24672 207.93176l0 0c0 -8.923538 7.2057495 -16.157486 16.094486 -16.157486l0 0c4.268524 0 8.362221 1.702301 11.380524 4.732422c3.018303 3.0301056 4.7139664 7.1398315 4.7139664 11.425064l0 0c0 8.923523 -7.2057495 16.15747 -16.09449 16.15747l0 0c-8.888737 0 -16.094486 -7.2339478 -16.094486 -16.15747z" fill-rule="evenodd"></path><path stroke="#38761d" stroke-width="1.0" stroke-linejoin="round" stroke-linecap="butt" d="m27.24672 207.93176l0 0c0 -8.923538 7.2057495 -16.157486 16.094486 -16.157486l0 0c4.268524 0 8.362221 1.702301 11.380524 4.732422c3.018303 3.0301056 4.7139664 7.1398315 4.7139664 11.425064l0 0c0 8.923523 -7.2057495 16.15747 -16.09449 16.15747l0 0c-8.888737 0 -16.094486 -7.2339478 -16.094486 -16.15747z" fill-rule="evenodd"></path><path fill="#b6d7a8" d="m27.24672 288.87402l0 0c0 -8.923523 7.2057495 -16.157501 16.094486 -16.157501l0 0c4.268524 0 8.362221 1.702301 11.380524 4.732422c3.018303 3.0301208 4.7139664 7.1398315 4.7139664 11.425079l0 0c0 8.923523 -7.2057495 16.15747 -16.09449 16.15747l0 0c-8.888737 0 -16.094486 -7.2339478 -16.094486 -16.15747z" fill-rule="evenodd"></path><path stroke="#38761d" stroke-width="1.0" stroke-linejoin="round" stroke-linecap="butt" d="m27.24672 288.87402l0 0c0 -8.923523 7.2057495 -16.157501 16.094486 -16.157501l0 0c4.268524 0 8.362221 1.702301 11.380524 4.732422c3.018303 3.0301208 4.7139664 7.1398315 4.7139664 11.425079l0 0c0 8.923523 -7.2057495 16.15747 -16.09449 16.15747l0 0c-8.888737 0 -16.094486 -7.2339478 -16.094486 -16.15747z" fill-rule="evenodd"></path><path fill="#b6d7a8" d="m27.24672 126.9895l0 0c0 -8.923531 7.2057495 -16.157478 16.094486 -16.157478l0 0c4.268524 0 8.362221 1.702301 11.380524 4.7324142c3.018303 3.0301132 4.7139664 7.1398315 4.7139664 11.425064l0 0c0 8.923523 -7.2057495 16.157486 -16.09449 16.157486l0 0c-8.888737 0 -16.094486 -7.233963 -16.094486 -16.157486z" fill-rule="evenodd"></path><path stroke="#38761d" stroke-width="1.0" stroke-linejoin="round" stroke-linecap="butt" d="m27.24672 126.9895l0 0c0 -8.923531 7.2057495 -16.157478 16.094486 -16.157478l0 0c4.268524 0 8.362221 1.702301 11.380524 4.7324142c3.018303 3.0301132 4.7139664 7.1398315 4.7139664 11.425064l0 0c0 8.923523 -7.2057495 16.157486 -16.09449 16.157486l0 0c-8.888737 0 -16.094486 -7.233963 -16.094486 -16.157486z" fill-rule="evenodd"></path><path fill="#000000" fill-opacity="0.0" d="m43.341206 272.71652l0 -48.629913" fill-rule="evenodd"></path><path stroke="#38761d" stroke-width="1.0" stroke-linejoin="round" stroke-linecap="butt" d="m43.341206 272.71652l0 -42.629913" fill-rule="evenodd"></path><path fill="#38761d" stroke="#38761d" stroke-width="1.0" stroke-linecap="butt" d="m44.99294 230.08661l-1.6517334 -4.538086l-1.6517296 4.538086z" fill-rule="evenodd"></path><path fill="#000000" fill-opacity="0.0" d="m43.341206 191.7769l0 -48.629913" fill-rule="evenodd"></path><path stroke="#38761d" stroke-width="1.0" stroke-linejoin="round" stroke-linecap="butt" d="m43.341206 191.7769l0 -42.629913" fill-rule="evenodd"></path><path fill="#38761d" stroke="#38761d" stroke-width="1.0" stroke-linecap="butt" d="m44.99294 149.14699l-1.6517334 -4.538101l-1.6517296 4.538101z" fill-rule="evenodd"></path><path fill="#b6d7a8" d="m109.95538 207.93176l0 0c0 -8.923538 7.205742 -16.157486 16.094482 -16.157486l0 0c4.268524 0 8.362228 1.702301 11.380524 4.732422c3.0183105 3.0301056 4.713974 7.1398315 4.713974 11.425064l0 0c0 8.923523 -7.2057495 16.15747 -16.094498 16.15747l0 0c-8.888741 0 -16.094482 -7.2339478 -16.094482 -16.15747z" fill-rule="evenodd"></path><path stroke="#38761d" stroke-width="1.0" stroke-linejoin="round" stroke-linecap="butt" d="m109.95538 207.93176l0 0c0 -8.923538 7.205742 -16.157486 16.094482 -16.157486l0 0c4.268524 0 8.362228 1.702301 11.380524 4.732422c3.0183105 3.0301056 4.713974 7.1398315 4.713974 11.425064l0 0c0 8.923523 -7.2057495 16.15747 -16.094498 16.15747l0 0c-8.888741 0 -16.094482 -7.2339478 -16.094482 -16.15747z" fill-rule="evenodd"></path><path fill="#000000" fill-opacity="0.0" d="m54.72173 277.44894l71.33858 -53.354324" fill-rule="evenodd"></path><path stroke="#38761d" stroke-width="1.0" stroke-linejoin="round" stroke-linecap="butt" d="m54.72173 277.44894l66.53375 -49.760788" fill-rule="evenodd"></path><path fill="#38761d" stroke="#38761d" stroke-width="1.0" stroke-linecap="butt" d="m122.24474 229.01088l2.6448746 -4.040695l-4.623398 1.3952637z" fill-rule="evenodd"></path><path fill="#b6d7a8" d="m109.95538 45.262466l0 0c0 -8.923531 7.205742 -16.15748 16.094482 -16.15748l0 0c4.268524 0 8.362228 1.702301 11.380524 4.732416c3.0183105 3.030117 4.713974 7.1398354 4.713974 11.425064l0 0c0 8.923531 -7.2057495 16.157482 -16.094498 16.157482l0 0c-8.888741 0 -16.094482 -7.2339516 -16.094482 -16.157482z" fill-rule="evenodd"></path><path stroke="#38761d" stroke-width="1.0" stroke-linejoin="round" stroke-linecap="butt" d="m109.95538 45.262466l0 0c0 -8.923531 7.205742 -16.15748 16.094482 -16.15748l0 0c4.268524 0 8.362228 1.702301 11.380524 4.732416c3.0183105 3.030117 4.713974 7.1398354 4.713974 11.425064l0 0c0 8.923531 -7.2057495 16.157482 -16.094498 16.157482l0 0c-8.888741 0 -16.094482 -7.2339516 -16.094482 -16.157482z" fill-rule="evenodd"></path><path fill="#000000" fill-opacity="0.0" d="m54.721786 114.77428l71.33858 -53.35433" fill-rule="evenodd"></path><path stroke="#38761d" stroke-width="1.0" stroke-linejoin="round" stroke-linecap="butt" d="m54.721786 114.77428l66.53375 -49.76078" fill-rule="evenodd"></path><path fill="#38761d" stroke="#38761d" stroke-width="1.0" stroke-linecap="butt" d="m122.2448 66.33621l2.6448746 -4.040695l-4.623398 1.3952637z" fill-rule="evenodd"></path><path fill="#000000" fill-opacity="0.0" d="m22.315016 311.06262l0 0c-12.324213 -12.324219 5.760664 -50.369446 40.3937 -84.97638l0 0c34.633034 -34.60695 72.69941 -52.67067 85.02363 -40.34645l0 0c12.3242035 12.3242035 -5.760666 50.36943 -40.393707 84.976364l0 0c-34.63304 34.606964 -72.69941 52.670685 -85.02362 40.346466z" fill-rule="evenodd"></path><path stroke="#ff0000" stroke-width="1.0" stroke-linejoin="round" stroke-linecap="butt" d="m22.315016 311.06262l0 0c-12.324213 -12.324219 5.760664 -50.369446 40.3937 -84.97638l0 0c34.633034 -34.60695 72.69941 -52.67067 85.02363 -40.34645l0 0c12.3242035 12.3242035 -5.760666 50.36943 -40.393707 84.976364l0 0c-34.63304 34.606964 -72.69941 52.670685 -85.02362 40.346466z" fill-rule="evenodd"></path><path fill="#000000" fill-opacity="0.0" d="m22.315016 147.63742l0 0c-12.324213 -12.3242035 5.760664 -50.36943 40.3937 -84.97637l0 0c34.633034 -34.606945 72.69941 -52.67067 85.02363 -40.34646l0 0c12.3242035 12.324213 -5.760666 50.36943 -40.393707 84.97638l0 0c-34.63304 34.60695 -72.69941 52.67067 -85.02362 40.34645z" fill-rule="evenodd"></path><path stroke="#ff0000" stroke-width="1.0" stroke-linejoin="round" stroke-linecap="butt" d="m22.315016 147.63742l0 0c-12.324213 -12.3242035 5.760664 -50.36943 40.3937 -84.97637l0 0c34.633034 -34.606945 72.69941 -52.67067 85.02363 -40.34646l0 0c12.3242035 12.324213 -5.760666 50.36943 -40.393707 84.97638l0 0c-34.63304 34.60695 -72.69941 52.67067 -85.02362 40.34645z" fill-rule="evenodd"></path><path fill="#000000" fill-opacity="0.0" d="m97.4866 188.7364l0.40944672 -60.755905" fill-rule="evenodd"></path><path stroke="#000000" stroke-width="3.0" stroke-linejoin="round" stroke-linecap="butt" d="m97.4866 188.7364l0.28814697 -42.756317" fill-rule="evenodd"></path><path fill="#000000" stroke="#000000" stroke-width="3.0" stroke-linecap="butt" d="m102.72983 146.01349l-4.8633347 -13.647385l-5.046829 13.580597z" fill-rule="evenodd"></path></g></svg>

