<?xml version="1.0" standalone="yes"?>

<svg version="1.1" viewBox="0.0 0.0 119.77952755905511 359.34120734908134" fill="none" stroke="none" stroke-linecap="square" stroke-miterlimit="10" xmlns="http://www.w3.org/2000/svg" xmlns:xlink="http://www.w3.org/1999/xlink"><clipPath id="p.0"><path d="m0 0l119.779526 0l0 359.34122l-119.779526 0l0 -359.34122z" clip-rule="nonzero"></path></clipPath><g clip-path="url(#p.0)"><path fill="#000000" fill-opacity="0.0" d="m0 0l119.779526 0l0 359.34122l-119.779526 0z" fill-rule="evenodd"></path><path fill="#b6d7a8" d="m0 257.38058l0 0c0 -8.923538 7.2057476 -16.157486 16.094488 -16.157486l0 0c4.268524 0 8.362219 1.702301 11.380522 4.732422c3.018303 3.0301056 4.7139664 7.1398315 4.7139664 11.425064l0 0c0 8.923523 -7.2057476 16.15747 -16.094488 16.15747l0 0c-8.888741 0 -16.094488 -7.2339478 -16.094488 -16.15747z" fill-rule="evenodd"></path><path stroke="#38761d" stroke-width="1.0" stroke-linejoin="round" stroke-linecap="butt" d="m0 257.38058l0 0c0 -8.923538 7.2057476 -16.157486 16.094488 -16.157486l0 0c4.268524 0 8.362219 1.702301 11.380522 4.732422c3.018303 3.0301056 4.7139664 7.1398315 4.7139664 11.425064l0 0c0 8.923523 -7.2057476 16.15747 -16.094488 16.15747l0 0c-8.888741 0 -16.094488 -7.2339478 -16.094488 -16.15747z" fill-rule="evenodd"></path><path fill="#b6d7a8" d="m0 338.32285l0 0c0 -8.923553 7.2057476 -16.157501 16.094488 -16.157501l0 0c4.268524 0 8.362219 1.702301 11.380522 4.732422c3.018303 3.0301208 4.7139664 7.1398315 4.7139664 11.425079l0 0c0 8.923523 -7.2057476 16.15747 -16.094488 16.15747l0 0c-8.888741 0 -16.094488 -7.2339478 -16.094488 -16.15747z" fill-rule="evenodd"></path><path stroke="#38761d" stroke-width="1.0" stroke-linejoin="round" stroke-linecap="butt" d="m0 338.32285l0 0c0 -8.923553 7.2057476 -16.157501 16.094488 -16.157501l0 0c4.268524 0 8.362219 1.702301 11.380522 4.732422c3.018303 3.0301208 4.7139664 7.1398315 4.7139664 11.425079l0 0c0 8.923523 -7.2057476 16.15747 -16.094488 16.15747l0 0c-8.888741 0 -16.094488 -7.2339478 -16.094488 -16.15747z" fill-rule="evenodd"></path><path fill="#b6d7a8" d="m0 176.43832l0 0c0 -8.923538 7.2057476 -16.157486 16.094488 -16.157486l0 0c4.268524 0 8.362219 1.702301 11.380522 4.732422c3.018303 3.0301056 4.7139664 7.1398315 4.7139664 11.425064l0 0c0 8.923523 -7.2057476 16.15747 -16.094488 16.15747l0 0c-8.888741 0 -16.094488 -7.2339478 -16.094488 -16.15747z" fill-rule="evenodd"></path><path stroke="#38761d" stroke-width="1.0" stroke-linejoin="round" stroke-linecap="butt" d="m0 176.43832l0 0c0 -8.923538 7.2057476 -16.157486 16.094488 -16.157486l0 0c4.268524 0 8.362219 1.702301 11.380522 4.732422c3.018303 3.0301056 4.7139664 7.1398315 4.7139664 11.425064l0 0c0 8.923523 -7.2057476 16.15747 -16.094488 16.15747l0 0c-8.888741 0 -16.094488 -7.2339478 -16.094488 -16.15747z" fill-rule="evenodd"></path><path fill="#000000" fill-opacity="0.0" d="m16.094488 322.16534l0 -48.629913" fill-rule="evenodd"></path><path stroke="#38761d" stroke-width="1.0" stroke-linejoin="round" stroke-linecap="butt" d="m16.094488 322.16534l0 -42.629913" fill-rule="evenodd"></path><path fill="#38761d" stroke="#38761d" stroke-width="1.0" stroke-linecap="butt" d="m17.746222 279.53543l-1.6517334 -4.538086l-1.6517324 4.538086z" fill-rule="evenodd"></path><path fill="#000000" fill-opacity="0.0" d="m16.094488 241.22572l0 -48.62993" fill-rule="evenodd"></path><path stroke="#38761d" stroke-width="1.0" stroke-linejoin="round" stroke-linecap="butt" d="m16.094488 241.22572l0 -42.62993" fill-rule="evenodd"></path><path fill="#38761d" stroke="#38761d" stroke-width="1.0" stroke-linecap="butt" d="m17.746222 198.5958l-1.6517334 -4.538086l-1.6517324 4.538086z" fill-rule="evenodd"></path><path fill="#d9ead3" d="m82.708664 257.38058l0 0c0 -8.923538 7.205742 -16.157486 16.094482 -16.157486l0 0c4.268524 0 8.362221 1.702301 11.380524 4.732422c3.018303 3.0301056 4.7139664 7.1398315 4.7139664 11.425064l0 0c0 8.923523 -7.2057495 16.15747 -16.09449 16.15747l0 0c-8.888741 0 -16.094482 -7.2339478 -16.094482 -16.15747z" fill-rule="evenodd"></path><path stroke="#d9ead3" stroke-width="1.0" stroke-linejoin="round" stroke-linecap="butt" d="m82.708664 257.38058l0 0c0 -8.923538 7.205742 -16.157486 16.094482 -16.157486l0 0c4.268524 0 8.362221 1.702301 11.380524 4.732422c3.018303 3.0301056 4.7139664 7.1398315 4.7139664 11.425064l0 0c0 8.923523 -7.2057495 16.15747 -16.09449 16.15747l0 0c-8.888741 0 -16.094482 -7.2339478 -16.094482 -16.15747z" fill-rule="evenodd"></path><path fill="#d9ead3" d="m82.708664 176.43832l0 0c0 -8.923538 7.205742 -16.157486 16.094482 -16.157486l0 0c4.268524 0 8.362221 1.702301 11.380524 4.732422c3.018303 3.0301056 4.7139664 7.1398315 4.7139664 11.425064l0 0c0 8.923523 -7.2057495 16.15747 -16.09449 16.15747l0 0c-8.888741 0 -16.094482 -7.2339478 -16.094482 -16.15747z" fill-rule="evenodd"></path><path stroke="#d9ead3" stroke-width="1.0" stroke-linejoin="round" stroke-linecap="butt" d="m82.708664 176.43832l0 0c0 -8.923538 7.205742 -16.157486 16.094482 -16.157486l0 0c4.268524 0 8.362221 1.702301 11.380524 4.732422c3.018303 3.0301056 4.7139664 7.1398315 4.7139664 11.425064l0 0c0 8.923523 -7.2057495 16.15747 -16.09449 16.15747l0 0c-8.888741 0 -16.094482 -7.2339478 -16.094482 -16.15747z" fill-rule="evenodd"></path><path fill="#000000" fill-opacity="0.0" d="m27.47501 326.89777l71.33858 -53.35434" fill-rule="evenodd"></path><path stroke="#d9ead3" stroke-width="1.0" stroke-linejoin="round" stroke-linecap="butt" d="m27.47501 326.89777l66.53375 -49.760803" fill-rule="evenodd"></path><path fill="#d9ead3" stroke="#d9ead3" stroke-width="1.0" stroke-linecap="butt" d="m94.99803 278.4597l2.644867 -4.04068l-4.623398 1.3952637z" fill-rule="evenodd"></path><path fill="#000000" fill-opacity="0.0" d="m98.80315 241.2231l0 -48.62993" fill-rule="evenodd"></path><path stroke="#d9ead3" stroke-width="1.0" stroke-linejoin="round" stroke-linecap="butt" d="m98.80315 241.2231l0 -42.62993" fill-rule="evenodd"></path><path fill="#d9ead3" stroke="#d9ead3" stroke-width="1.0" stroke-linecap="butt" d="m100.45488 198.59317l-1.6517334 -4.538086l-1.6517258 4.538086z" fill-rule="evenodd"></path><path fill="#b6d7a8" d="m82.708664 93.973755l0 0c0 -8.923531 7.205742 -16.157478 16.094482 -16.157478l0 0c4.268524 0 8.362221 1.702301 11.380524 4.7324142c3.018303 3.0301132 4.7139664 7.1398315 4.7139664 11.425064l0 0c0 8.923531 -7.2057495 16.157478 -16.09449 16.157478l0 0c-8.888741 0 -16.094482 -7.2339478 -16.094482 -16.157478z" fill-rule="evenodd"></path><path stroke="#38761d" stroke-width="1.0" stroke-linejoin="round" stroke-linecap="butt" d="m82.708664 93.973755l0 0c0 -8.923531 7.205742 -16.157478 16.094482 -16.157478l0 0c4.268524 0 8.362221 1.702301 11.380524 4.7324142c3.018303 3.0301132 4.7139664 7.1398315 4.7139664 11.425064l0 0c0 8.923531 -7.2057495 16.157478 -16.09449 16.157478l0 0c-8.888741 0 -16.094482 -7.2339478 -16.094482 -16.157478z" fill-rule="evenodd"></path><path fill="#b6d7a8" d="m82.708664 16.15748l0 0c0 -8.923531 7.205742 -16.15748 16.094482 -16.15748l0 0c4.268524 0 8.362221 1.702301 11.380524 4.7324166c3.018303 3.0301151 4.7139664 7.139834 4.7139664 11.425064l0 0c0 8.923531 -7.2057495 16.15748 -16.09449 16.15748l0 0c-8.888741 0 -16.094482 -7.2339497 -16.094482 -16.15748z" fill-rule="evenodd"></path><path stroke="#38761d" stroke-width="1.0" stroke-linejoin="round" stroke-linecap="butt" d="m82.708664 16.15748l0 0c0 -8.923531 7.205742 -16.15748 16.094482 -16.15748l0 0c4.268524 0 8.362221 1.702301 11.380524 4.7324166c3.018303 3.0301151 4.7139664 7.139834 4.7139664 11.425064l0 0c0 8.923531 -7.2057495 16.15748 -16.09449 16.15748l0 0c-8.888741 0 -16.094482 -7.2339497 -16.094482 -16.15748z" fill-rule="evenodd"></path><path fill="#000000" fill-opacity="0.0" d="m27.475065 163.4462l71.338585 -53.354332" fill-rule="evenodd"></path><path stroke="#38761d" stroke-width="1.0" stroke-linejoin="round" stroke-linecap="butt" d="m27.475065 163.4462l66.53375 -49.760788" fill-rule="evenodd"></path><path fill="#38761d" stroke="#38761d" stroke-width="1.0" stroke-linecap="butt" d="m94.99808 115.008125l2.6448746 -4.040695l-4.623398 1.3952637z" fill-rule="evenodd"></path><path fill="#000000" fill-opacity="0.0" d="m98.80315 77.81628l0 -45.511814" fill-rule="evenodd"></path><path stroke="#38761d" stroke-width="1.0" stroke-linejoin="round" stroke-linecap="butt" d="m98.80315 77.81628l0 -39.511814" fill-rule="evenodd"></path><path fill="#38761d" stroke="#38761d" stroke-width="1.0" stroke-linecap="butt" d="m100.45488 38.304462l-1.6517334 -4.5380974l-1.6517258 4.5380974z" fill-rule="evenodd"></path></g></svg>

