<?xml version="1.0" standalone="yes"?>

<svg version="1.1" viewBox="0.0 0.0 117.31758530183727 276.03937007874015" fill="none" stroke="none" stroke-linecap="square" stroke-miterlimit="10" xmlns="http://www.w3.org/2000/svg" xmlns:xlink="http://www.w3.org/1999/xlink"><clipPath id="p.0"><path d="m0 0l117.31759 0l0 276.03937l-117.31759 0l0 -276.03937z" clip-rule="nonzero"></path></clipPath><g clip-path="url(#p.0)"><path fill="#000000" fill-opacity="0.0" d="m0 0l117.31759 0l0 276.03937l-117.31759 0z" fill-rule="evenodd"></path><path fill="#b6d7a8" d="m0 178.04199l0 0c0 -8.923523 7.2057476 -16.15747 16.094488 -16.15747l0 0c4.268524 0 8.362219 1.702301 11.380522 4.7324066c3.018303 3.0301208 4.7139664 7.1398315 4.7139664 11.425064l0 0c0 8.923538 -7.2057476 16.157486 -16.094488 16.157486l0 0c-8.888741 0 -16.094488 -7.2339478 -16.094488 -16.157486z" fill-rule="evenodd"></path><path stroke="#38761d" stroke-width="1.0" stroke-linejoin="round" stroke-linecap="butt" d="m0 178.04199l0 0c0 -8.923523 7.2057476 -16.15747 16.094488 -16.15747l0 0c4.268524 0 8.362219 1.702301 11.380522 4.7324066c3.018303 3.0301208 4.7139664 7.1398315 4.7139664 11.425064l0 0c0 8.923538 -7.2057476 16.157486 -16.094488 16.157486l0 0c-8.888741 0 -16.094488 -7.2339478 -16.094488 -16.157486z" fill-rule="evenodd"></path><path fill="#b6d7a8" d="m0 258.98425l0 0c0 -8.923538 7.2057476 -16.157486 16.094488 -16.157486l0 0c4.268524 0 8.362219 1.702301 11.380522 4.732422c3.018303 3.0301208 4.7139664 7.1398315 4.7139664 11.425064l0 0c0 8.923523 -7.2057476 16.15747 -16.094488 16.15747l0 0c-8.888741 0 -16.094488 -7.2339478 -16.094488 -16.15747z" fill-rule="evenodd"></path><path stroke="#38761d" stroke-width="1.0" stroke-linejoin="round" stroke-linecap="butt" d="m0 258.98425l0 0c0 -8.923538 7.2057476 -16.157486 16.094488 -16.157486l0 0c4.268524 0 8.362219 1.702301 11.380522 4.732422c3.018303 3.0301208 4.7139664 7.1398315 4.7139664 11.425064l0 0c0 8.923523 -7.2057476 16.15747 -16.094488 16.15747l0 0c-8.888741 0 -16.094488 -7.2339478 -16.094488 -16.15747z" fill-rule="evenodd"></path><path fill="#b6d7a8" d="m0 97.09974l0 0c0 -8.923531 7.2057476 -16.157478 16.094488 -16.157478l0 0c4.268524 0 8.362219 1.702301 11.380522 4.7324142c3.018303 3.0301132 4.7139664 7.1398315 4.7139664 11.425064l0 0c0 8.923531 -7.2057476 16.157478 -16.094488 16.157478l0 0c-8.888741 0 -16.094488 -7.2339478 -16.094488 -16.157478z" fill-rule="evenodd"></path><path stroke="#38761d" stroke-width="1.0" stroke-linejoin="round" stroke-linecap="butt" d="m0 97.09974l0 0c0 -8.923531 7.2057476 -16.157478 16.094488 -16.157478l0 0c4.268524 0 8.362219 1.702301 11.380522 4.7324142c3.018303 3.0301132 4.7139664 7.1398315 4.7139664 11.425064l0 0c0 8.923531 -7.2057476 16.157478 -16.094488 16.157478l0 0c-8.888741 0 -16.094488 -7.2339478 -16.094488 -16.157478z" fill-rule="evenodd"></path><path fill="#000000" fill-opacity="0.0" d="m16.094488 242.82677l0 -48.629913" fill-rule="evenodd"></path><path stroke="#38761d" stroke-width="1.0" stroke-linejoin="round" stroke-linecap="butt" d="m16.094488 242.82677l0 -42.629913" fill-rule="evenodd"></path><path fill="#38761d" stroke="#38761d" stroke-width="1.0" stroke-linecap="butt" d="m17.746222 200.19685l-1.6517334 -4.538101l-1.6517324 4.538101z" fill-rule="evenodd"></path><path fill="#000000" fill-opacity="0.0" d="m16.094488 161.88715l0 -48.62993" fill-rule="evenodd"></path><path stroke="#38761d" stroke-width="1.0" stroke-linejoin="round" stroke-linecap="butt" d="m16.094488 161.88715l0 -42.62993" fill-rule="evenodd"></path><path fill="#38761d" stroke="#38761d" stroke-width="1.0" stroke-linecap="butt" d="m17.746222 119.25722l-1.6517334 -4.5380936l-1.6517324 4.5380936z" fill-rule="evenodd"></path><path fill="#b6d7a8" d="m82.708664 178.04199l0 0c0 -8.923523 7.205742 -16.15747 16.094482 -16.15747l0 0c4.268524 0 8.362221 1.702301 11.380524 4.7324066c3.018303 3.0301208 4.7139664 7.1398315 4.7139664 11.425064l0 0c0 8.923538 -7.2057495 16.157486 -16.09449 16.157486l0 0c-8.888741 0 -16.094482 -7.2339478 -16.094482 -16.157486z" fill-rule="evenodd"></path><path stroke="#38761d" stroke-width="1.0" stroke-linejoin="round" stroke-linecap="butt" d="m82.708664 178.04199l0 0c0 -8.923523 7.205742 -16.15747 16.094482 -16.15747l0 0c4.268524 0 8.362221 1.702301 11.380524 4.7324066c3.018303 3.0301208 4.7139664 7.1398315 4.7139664 11.425064l0 0c0 8.923538 -7.2057495 16.157486 -16.09449 16.157486l0 0c-8.888741 0 -16.094482 -7.2339478 -16.094482 -16.157486z" fill-rule="evenodd"></path><path fill="#b6d7a8" d="m82.708664 97.09974l0 0c0 -8.923531 7.205742 -16.157478 16.094482 -16.157478l0 0c4.268524 0 8.362221 1.702301 11.380524 4.7324142c3.018303 3.0301132 4.7139664 7.1398315 4.7139664 11.425064l0 0c0 8.923531 -7.2057495 16.157478 -16.09449 16.157478l0 0c-8.888741 0 -16.094482 -7.2339478 -16.094482 -16.157478z" fill-rule="evenodd"></path><path stroke="#38761d" stroke-width="1.0" stroke-linejoin="round" stroke-linecap="butt" d="m82.708664 97.09974l0 0c0 -8.923531 7.205742 -16.157478 16.094482 -16.157478l0 0c4.268524 0 8.362221 1.702301 11.380524 4.7324142c3.018303 3.0301132 4.7139664 7.1398315 4.7139664 11.425064l0 0c0 8.923531 -7.2057495 16.157478 -16.09449 16.157478l0 0c-8.888741 0 -16.094482 -7.2339478 -16.094482 -16.157478z" fill-rule="evenodd"></path><path fill="#000000" fill-opacity="0.0" d="m27.47501 247.55919l71.33858 -53.354324" fill-rule="evenodd"></path><path stroke="#38761d" stroke-width="1.0" stroke-linejoin="round" stroke-linecap="butt" d="m27.47501 247.55917l66.53375 -49.760788" fill-rule="evenodd"></path><path fill="#38761d" stroke="#38761d" stroke-width="1.0" stroke-linecap="butt" d="m94.99803 199.12111l2.644867 -4.040695l-4.623398 1.3952637z" fill-rule="evenodd"></path><path fill="#000000" fill-opacity="0.0" d="m98.80315 161.88452l0 -48.62993" fill-rule="evenodd"></path><path stroke="#38761d" stroke-width="1.0" stroke-linejoin="round" stroke-linecap="butt" d="m98.80315 161.88452l0 -42.62993" fill-rule="evenodd"></path><path fill="#38761d" stroke="#38761d" stroke-width="1.0" stroke-linecap="butt" d="m100.45488 119.25459l-1.6517334 -4.538101l-1.6517258 4.538101z" fill-rule="evenodd"></path><path fill="#b6d7a8" d="m0 16.15748l0 0c0 -8.923531 7.2057476 -16.15748 16.094488 -16.15748l0 0c4.268524 0 8.362219 1.702301 11.380522 4.7324166c3.018303 3.0301151 4.7139664 7.139834 4.7139664 11.425064l0 0c0 8.923531 -7.2057476 16.15748 -16.094488 16.15748l0 0c-8.888741 0 -16.094488 -7.2339497 -16.094488 -16.15748z" fill-rule="evenodd"></path><path stroke="#38761d" stroke-width="1.0" stroke-linejoin="round" stroke-linecap="butt" d="m0 16.15748l0 0c0 -8.923531 7.2057476 -16.15748 16.094488 -16.15748l0 0c4.268524 0 8.362219 1.702301 11.380522 4.7324166c3.018303 3.0301151 4.7139664 7.139834 4.7139664 11.425064l0 0c0 8.923531 -7.2057476 16.15748 -16.094488 16.15748l0 0c-8.888741 0 -16.094488 -7.2339497 -16.094488 -16.15748z" fill-rule="evenodd"></path><path fill="#000000" fill-opacity="0.0" d="m16.094488 80.944885l0 -48.629925" fill-rule="evenodd"></path><path stroke="#38761d" stroke-width="1.0" stroke-linejoin="round" stroke-linecap="butt" d="m16.094488 80.944885l0 -42.629925" fill-rule="evenodd"></path><path fill="#38761d" stroke="#38761d" stroke-width="1.0" stroke-linecap="butt" d="m17.746222 38.31496l-1.6517334 -4.5380974l-1.6517324 4.5380974z" fill-rule="evenodd"></path><path fill="#000000" fill-opacity="0.0" d="m87.42263 85.674675l-59.93701 -58.078743" fill-rule="evenodd"></path><path stroke="#38761d" stroke-width="1.0" stroke-linejoin="round" stroke-linecap="butt" d="m87.42262 85.674675l-55.62809 -53.90342" fill-rule="evenodd"></path><path fill="#38761d" stroke="#38761d" stroke-width="1.0" stroke-linecap="butt" d="m32.94395 30.585058l-4.4084625 -1.9718056l2.1096249 4.3441944z" fill-rule="evenodd"></path></g></svg>

